<svg xmlns="http://www.w3.org/2000/svg" width="39" height="36" fill="none"><path fill="red" d="M12 6H9v3h3zM12 9H9v3h3zM15 12h-3v3h3zM18 9h-3v3h3zM15 6h-3v3h3zM9 9H6v3h3zM9 12H6v3h3zM9 15H6v3h3zM18 6h-3v3h3zM12 15H9v3h3zM12 18H9v3h3zM15 15h-3v3h3zM15 18h-3v3h3zM15 21h-3v3h3zM18 15h-3v3h3zM18 12h-3v3h3zM18 21h-3v3h3zM18 18h-3v3h3zM18 24h-3v3h3zM27 6h3v3h-3zM27 9h3v3h-3zM24 9h3v3h-3zM27 12h3v3h-3zM24 12h3v3h-3zM21 9h3v3h-3zM24 6h3v3h-3zM30 9h3v3h-3zM36 13h3v3h-3zM27 27h3v3h-3zM18 33h3v3h-3zM9 27h3v3H9zM24 0h3v3h-3zM33 3h3v3h-3zM3 3h3v3H3zM12 0h3v3h-3zM0 13h3v3H0zM30 12h3v3h-3zM30 15h3v3h-3zM21 6h3v3h-3zM27 15h3v3h-3zM27 18h3v3h-3zM24 15h3v3h-3zM24 18h3v3h-3zM24 21h3v3h-3zM21 15h3v3h-3zM21 12h3v3h-3zM21 21h3v3h-3zM21 18h3v3h-3zM21 24h3v3h-3zM21 9h-3v3h3zM21 15h-3v3h3zM21 12h-3v3h3zM21 21h-3v3h3zM21 18h-3v3h3zM21 24h-3v3h3zM21 27h-3v3h3z"/></svg>